<svg width="40" height="40" viewBox="0 0 40 40" fill="none" xmlns="http://www.w3.org/2000/svg">
<path d="M0 18.8307C0.102728 18.0608 0.169256 17.283 0.315031 16.5218C1.53113 10.1889 4.97788 5.4556 10.6181 2.35323C13.7899 0.608817 17.2298 -0.185609 20.8371 0.0364783C28.343 0.50022 33.9695 4.06144 37.6403 10.6194C39.4082 13.7775 40.185 17.2282 39.963 20.8354C39.4992 28.357 35.9243 33.9816 29.3517 37.6621C26.9146 39.0269 24.2613 39.7451 21.47 39.9358C21.3683 39.9427 21.2685 39.9779 21.1687 39.9994H18.8255C18.7248 39.9779 18.625 39.9417 18.5242 39.9358C16.0695 39.7744 13.7166 39.1884 11.5153 38.1034C5.38194 35.0803 1.62799 30.2071 0.315031 23.4828C0.167299 22.7216 0.102728 21.9439 0 21.1749C0 20.3941 0 19.6124 0 18.8317V18.8307ZM20.0006 1.81905C9.98022 1.81415 1.81779 9.97463 1.81387 20.0008C1.80898 30.0212 9.96946 38.1836 19.9957 38.1875C30.016 38.1924 38.1784 30.0319 38.1823 20.0057C38.1872 9.98539 30.0268 1.82296 20.0006 1.81905Z" fill="white"/>
<path fill-rule="evenodd" clip-rule="evenodd" d="M20.4618 16.5152C20.4618 24.1492 20.4582 24.3754 20.3294 24.8062C19.6076 27.2202 16.674 27.9278 15.0234 26.0861C14.3797 25.3678 14.162 24.7329 14.2039 23.6965C14.2278 23.1038 14.2566 22.9786 14.4772 22.5073C14.8828 21.6407 15.535 21.0603 16.4139 20.7837C16.7804 20.6684 16.9869 20.647 17.4811 20.6733C17.8182 20.6911 18.1464 20.7291 18.2106 20.7576C18.3202 20.8061 18.3274 20.6963 18.3274 18.985V17.1606L18.0772 17.1179C17.6423 17.0436 16.7641 17.07 16.185 17.1748C13.3517 17.6874 11.1699 19.9387 10.7214 22.8124C10.6115 23.5162 10.674 24.9375 10.8433 25.5837C11.3916 27.6775 12.8956 29.4197 14.8329 30.2053C15.7279 30.5683 16.2908 30.6711 17.3602 30.6669C18.1441 30.6637 18.4008 30.6343 18.9595 30.4834C21.4154 29.8205 23.2589 27.8573 23.8443 25.2816C23.9529 24.8042 23.963 24.3569 23.9565 20.3295C23.9525 17.8945 23.9585 15.9022 23.9699 15.9022C23.9814 15.9022 24.1797 16.0381 24.4107 16.2041C25.5989 17.058 27.2005 17.6329 28.6828 17.7375L29.3332 17.7835V15.9914V14.1994L28.8023 14.1536C26.8215 13.983 25.0153 12.546 24.2969 10.5691C24.1622 10.1984 23.9332 9.04109 23.9307 8.71867C23.9305 8.69028 23.1499 8.66699 22.1961 8.66699H20.4618V16.5152Z" fill="white"/>
</svg>
