<svg width="40" height="40" viewBox="0 0 40 40" fill="none" xmlns="http://www.w3.org/2000/svg">
<path d="M0 18.8307C0.102728 18.0608 0.169256 17.283 0.315031 16.5218C1.53113 10.1889 4.97788 5.4556 10.6181 2.35323C13.7899 0.608817 17.2298 -0.185609 20.8371 0.0364783C28.343 0.50022 33.9695 4.06144 37.6403 10.6194C39.4082 13.7775 40.185 17.2282 39.963 20.8354C39.4992 28.357 35.9243 33.9816 29.3517 37.6621C26.9146 39.0269 24.2613 39.7451 21.47 39.9358C21.3683 39.9427 21.2685 39.9779 21.1687 39.9994H18.8255C18.7248 39.9779 18.625 39.9417 18.5242 39.9358C16.0695 39.7744 13.7166 39.1884 11.5153 38.1034C5.38194 35.0803 1.62799 30.2071 0.315031 23.4828C0.167299 22.7216 0.102728 21.9439 0 21.1749C0 20.3941 0 19.6124 0 18.8317V18.8307ZM20.0006 1.81905C9.98022 1.81415 1.81779 9.97463 1.81387 20.0008C1.80898 30.0212 9.96946 38.1836 19.9957 38.1875C30.016 38.1924 38.1784 30.0319 38.1823 20.0057C38.1872 9.98539 30.0268 1.82296 20.0006 1.81905Z" fill="white"/>
<path d="M21.8274 28.1674H18.1869V20.0099H16.3867V17.2763H18.1849C18.1849 17.0895 18.1771 16.9251 18.1859 16.7627C18.2368 15.8832 18.2153 14.9899 18.365 14.127C18.5616 12.998 19.314 12.2593 20.4342 12.0558C21.3597 11.8875 22.3165 11.8807 23.2607 11.821C23.6608 11.7956 24.0649 11.8171 24.5012 11.8171V14.5536C24.2126 14.5536 23.9181 14.5536 23.6236 14.5536C23.4289 14.5536 23.2333 14.5506 23.0386 14.5555C22.0191 14.581 21.8195 14.7835 21.8098 15.8117C21.8058 16.2784 21.8098 16.7451 21.8098 17.2626H24.5433C24.4366 18.2038 24.3359 19.0902 24.2322 19.9991H21.8274V28.1684V28.1674Z" fill="white"/>
</svg>
