<svg width="40" height="40" viewBox="0 0 40 40" fill="none" xmlns="http://www.w3.org/2000/svg">
<path d="M18.8303 40.001C18.0594 39.8973 17.2806 39.8317 16.5175 39.685C10.1856 38.4669 5.45226 35.0202 2.35087 29.379C0.607439 26.2071 -0.186987 22.7663 0.0370569 19.1591C0.500798 11.6531 4.06495 6.02756 10.6229 2.35774C13.781 0.590828 17.2327 -0.185009 20.8399 0.0370784C28.3458 0.499841 33.9635 4.06595 37.647 10.6161C39.0158 13.0502 39.7388 15.7025 39.9335 18.4938C39.9413 18.6073 39.9775 18.7188 40 18.8303V21.1735C39.9775 21.286 39.9413 21.3966 39.9335 21.5101C39.7388 24.2994 39.0011 26.9429 37.651 29.3858C34.5398 35.0182 29.8153 38.4669 23.4863 39.683C22.7232 39.8298 21.9454 39.8953 21.1745 39.9981H18.8313L18.8303 40.001ZM19.9916 38.1871C30.0051 38.2038 38.1695 30.0482 38.1871 20.0141C38.2037 10.0007 30.0482 1.83628 20.0141 1.81867C10.0006 1.80203 1.83626 9.95762 1.81864 19.9916C1.80201 30.0051 9.95759 38.1695 19.9916 38.1871Z" fill="white"/>
<path d="M10.9389 20.005C10.9389 18.106 10.89 16.204 10.9526 14.307C11.0133 12.4726 12.4818 11.0638 14.3221 10.9385C14.4776 10.9278 14.6342 10.919 14.7897 10.919C18.2639 10.918 21.738 10.9219 25.2122 10.916C26.7824 10.9131 28.0073 11.5314 28.6912 12.9657C28.9446 13.4969 29.0659 14.1387 29.0708 14.7316C29.105 18.2449 29.0962 21.7582 29.0845 25.2705C29.0767 27.5569 27.5465 29.0792 25.2552 29.0851C21.7546 29.0949 18.2551 29.0939 14.7545 29.0851C12.4436 29.0792 10.9291 27.552 10.9193 25.2353C10.9125 23.4918 10.9184 21.7484 10.9184 20.005C10.9252 20.005 10.9321 20.005 10.9389 20.005ZM25.4029 19.1068C26.0349 22.85 22.958 25.5112 20.1462 25.5376C18.7824 25.5503 17.5487 25.1521 16.5106 24.2608C14.9374 22.9097 14.3504 21.1672 14.6165 19.1156H12.7352C12.7352 19.2565 12.7352 19.372 12.7352 19.4874C12.7352 21.4138 12.7332 23.3392 12.7352 25.2656C12.7371 26.5414 13.468 27.2712 14.7476 27.2722C18.2482 27.2742 21.7488 27.2742 25.2493 27.2722C26.5496 27.2722 27.2706 26.5443 27.2716 25.2372C27.2735 23.3245 27.2716 21.4118 27.2716 19.4982C27.2716 19.3729 27.2579 19.2477 27.2501 19.1078H25.4039L25.4029 19.1068ZM23.6292 19.9913C23.6135 17.9866 21.9777 16.3616 19.9916 16.3772C17.987 16.3929 16.3619 18.0287 16.3776 20.0147C16.3932 22.0194 18.0281 23.6435 20.0151 23.6288C22.0188 23.6141 23.6438 21.9783 23.6292 19.9913ZM23.6654 16.3625C24.5165 16.3625 25.3452 16.3665 26.1729 16.3547C26.2365 16.3547 26.3519 16.2383 26.3529 16.1747C26.3656 15.347 26.3607 14.5183 26.3607 13.6672H23.6644V16.3635L23.6654 16.3625Z" fill="white"/>
</svg>
