<svg width="40" height="40" viewBox="0 0 40 40" fill="none" xmlns="http://www.w3.org/2000/svg">
<path d="M0 18.8307C0.102728 18.0608 0.169256 17.283 0.315031 16.5218C1.53113 10.1889 4.97788 5.4556 10.6181 2.35323C13.7899 0.608817 17.2298 -0.185609 20.8371 0.0364783C28.343 0.50022 33.9695 4.06144 37.6403 10.6194C39.4082 13.7775 40.185 17.2282 39.963 20.8354C39.4992 28.357 35.9243 33.9816 29.3517 37.6621C26.9146 39.0269 24.2613 39.7451 21.47 39.9358C21.3683 39.9427 21.2685 39.9779 21.1687 39.9994H18.8255C18.7248 39.9779 18.625 39.9417 18.5242 39.9358C16.0695 39.7744 13.7166 39.1884 11.5153 38.1034C5.38194 35.0803 1.62799 30.2071 0.315031 23.4828C0.167299 22.7216 0.102728 21.9439 0 21.1749C0 20.3941 0 19.6124 0 18.8317V18.8307ZM20.0006 1.81905C9.98022 1.81415 1.81779 9.97463 1.81387 20.0008C1.80898 30.0212 9.96946 38.1836 19.9957 38.1875C30.016 38.1924 38.1784 30.0319 38.1823 20.0057C38.1872 9.98539 30.0268 1.82296 20.0006 1.81905Z" fill="white"/>
<path fill-rule="evenodd" clip-rule="evenodd" d="M16.2674 10.7352C12.9478 10.8512 11.1018 11.0467 10.2289 11.3747C9.62979 11.5999 8.8727 12.167 8.50379 12.6672C7.67017 13.7975 7.43318 15.0854 7.34868 18.9452C7.27467 22.3274 7.47343 24.9585 7.89789 26.2123C8.39025 27.6671 9.60742 28.6248 11.306 28.8942C13.3636 29.2205 17.3542 29.3832 21.7567 29.3203C26.6212 29.2509 29.1622 29.0654 30.2519 28.7C31.474 28.2903 32.3643 27.4082 32.7723 26.2028C33.1902 24.9682 33.3912 22.2849 33.3191 18.9048C33.2508 15.7083 33.0693 14.3696 32.5639 13.3347C32.1181 12.422 31.2719 11.665 30.3263 11.3329C28.8391 10.8107 22.1939 10.5282 16.2674 10.7352ZM23.9119 12.7528C27.4556 12.8773 29.3644 13.067 29.9042 13.3482C30.1952 13.4999 30.6059 13.9323 30.7734 14.2635C31.445 15.591 31.499 23.5641 30.8501 25.5752C30.6708 26.1306 30.1525 26.6307 29.5908 26.7899C28.4158 27.123 25.4644 27.2799 20.3741 27.2799C15.3283 27.2799 12.3312 27.1226 11.184 26.7974C10.4609 26.5926 9.95234 26.0882 9.76292 25.3884C9.29821 23.6706 9.2242 17.6006 9.63914 15.2325C9.77967 14.4304 9.90866 14.1288 10.2781 13.7376C10.7832 13.203 11.266 13.0742 13.3804 12.9103C16.1147 12.6985 20.4981 12.6329 23.9119 12.7528ZM17.7309 19.9908C17.7309 22.2427 17.7434 24.0851 17.7587 24.0851C17.8066 24.0851 24.6811 20.1116 24.7507 20.0437C24.7871 20.0082 24.4028 19.7411 23.8967 19.45C23.3907 19.159 21.9153 18.3117 20.6181 17.5671C19.3209 16.8225 18.1406 16.1421 17.9953 16.055L17.7309 15.8967V19.9908Z" fill="white"/>
</svg>
