<svg width="932" height="194" viewBox="0 0 932 194" fill="none" xmlns="http://www.w3.org/2000/svg">
<path d="M511.264 86.431L405.849 86.4474V96.4209H511.264V86.431Z" fill="white"/>
<path d="M531.22 65.1689H405.849V75.1343H531.22V65.1689Z" fill="white"/>
<path d="M201.81 129.584H216.171L205.933 118.508H250.699V65.1689H125.353V118.508H191.572L201.81 129.584ZM182.35 108.535H135.77V74.9627H241.128V108.535H196.719L188.115 99.2227H173.746L182.366 108.535H182.35Z" fill="white"/>
<path d="M531.22 108.494H405.849V118.467L531.22 118.475V108.494Z" fill="white"/>
<path d="M390.106 65.1689H380.526V108.535H275.168V65.1689L264.767 65.1607V118.508L390.106 118.5V65.1689Z" fill="white"/>
<path d="M670.935 108.494V96.4209V94.9588V86.4474H555.461V74.3501H730.64V118.467L740.561 118.475V74.3501H806.341V64.3847H545.54V72.8879V74.3501V86.4311V96.4209H555.461H660.998V108.494H545.54V118.475H660.998L670.935 118.467V108.494Z" fill="white"/>
<path d="M799.672 100.57C805.674 100.57 810.724 105.341 810.724 111.671C810.724 118.002 805.674 122.772 799.672 122.772C793.671 122.772 788.621 118.002 788.621 111.671C788.621 105.341 793.638 100.57 799.672 100.57ZM799.672 121.155C804.722 121.155 808.764 117.038 808.764 111.663C808.764 106.288 804.722 102.171 799.672 102.171C794.622 102.171 790.581 106.288 790.581 111.663C790.581 117.038 794.59 121.155 799.672 121.155ZM795.452 105.161H800.323C803.381 105.161 804.836 106.386 804.836 108.861C804.836 111.336 803.348 112.202 801.421 112.415L805.137 118.141H803.031L799.526 112.562H797.42V118.141H795.46V105.161H795.452ZM797.412 110.952H799.428C801.185 110.952 802.876 110.863 802.876 108.771C802.876 106.983 801.331 106.77 799.998 106.77H797.412V110.944V110.952Z" fill="white"/>
</svg>
