<svg width="686" height="66" viewBox="0 0 686 66" fill="none" xmlns="http://www.w3.org/2000/svg">
<path d="M386.014 22.0917L280.567 22.114V32.0765H386.014V22.0917Z" fill="white"/>
<path d="M405.973 0.843506H280.567V10.8061H405.973V0.843506Z" fill="white"/>
<path d="M76.4781 65.1999H90.8406L80.6006 54.1366H125.373V0.843506H0V54.1366H66.2381L76.4781 65.1999ZM57.0178 44.174H10.4172V10.6393H115.798V44.174H71.3803L62.7694 34.8675H48.3958L57.0178 44.174Z" fill="white"/>
<path d="M405.973 44.1406H280.567V54.1032L405.973 54.1143V44.1406Z" fill="white"/>
<path d="M264.83 0.843506H255.244V44.174H149.853V0.843506H139.447V54.1366H264.83V0.843506Z" fill="white"/>
<path d="M545.73 44.1407V32.0766V30.6089V22.114H430.221V10.0278L605.452 10.0166V54.1032L615.371 54.1143V10.0278H681.177V0.0651855H420.302V8.56005V10.0166V22.0918V32.0766H430.221H535.79V44.1407H420.302V54.1143H535.79L545.73 54.1032V44.1407Z" fill="white"/>
<path d="M674.494 36.224C680.501 36.224 685.543 40.994 685.543 47.3096C685.543 53.6251 680.49 58.3952 674.494 58.3952C668.499 58.3952 663.445 53.6251 663.445 47.3096C663.445 40.994 668.466 36.224 674.494 36.224ZM674.494 56.794C679.548 56.794 683.582 52.68 683.582 47.3096C683.582 41.9391 679.537 37.8251 674.494 37.8251C669.452 37.8251 665.407 41.9391 665.407 47.3096C665.407 52.68 669.419 56.794 674.494 56.794ZM670.272 40.8161H675.148C678.207 40.8161 679.67 42.0392 679.67 44.5076C679.67 46.976 678.185 47.8433 676.256 48.0545L679.969 53.7808H677.863L674.361 48.2102H672.256V53.7808H670.294V40.8161H670.272ZM672.234 46.598H674.25C676.001 46.598 677.697 46.509 677.697 44.4187C677.697 42.6285 676.157 42.4172 674.816 42.4172H672.234V46.5869V46.598Z" fill="white"/>
</svg>
