<?xml version="1.0" encoding="UTF-8"?>
<svg id="Layer_2" data-name="Layer 2" xmlns="http://www.w3.org/2000/svg" viewBox="0 0 859.43 393.81">
  <defs>
    <style>
      .cls-1 {
        fill: #202a49;
      }

      .cls-1, .cls-2 {
        stroke-width: 0px;
      }

      .cls-2 {
        fill: #fff;
      }
    </style>
  </defs>
  <g id="Layer_1-2" data-name="Layer 1">
    <g>
      <circle class="cls-1" cx="196.91" cy="196.91" r="186.43"/>
      <path class="cls-2" d="m196.91,392.09C89.28,392.09,1.72,304.53,1.72,196.91S89.28,1.72,196.91,1.72s195.18,87.56,195.18,195.18-87.56,195.18-195.18,195.18Zm0-372.87C98.93,19.22,19.22,98.93,19.22,196.91s79.86,172.33,177.68,177.69c87.28,4.78,177.69-79.71,177.69-177.69S294.88,19.22,196.91,19.22Z"/>
      <path class="cls-2" d="m111.05,127.6s41.17-28.21,150.18-33.54c0,0-49.16-89.95-183.33-30.49l-6.86,6.86s40.01-17.54,73.55-9.92c0,0-43.54,11.47-62.86,48.29-1.24,2.36-3.06,4.37-5.3,5.82-6.8,4.42-21.77,14.44-30.67,22.58-4.1,3.75-4.4,10.15-.58,14.19,9.59,10.16,25.2,35.46,10.99,84.45,0,0,17.35,1.93,21.96,25.85.86,4.44.9,8.99.28,13.46-1.48,10.75-6.42,31.5-22.61,36.52,0,0,24.47,81.47,141.11,68.51v-5.59s-68.46-6.16-80.52-48.02c0,0,105.38,65.68,174.22-8.73,3.5-3.78-3.56-10.85-7.22-7.23-.21.21-.43.44-.65.68,0,0-29.01,27.74-72.74,27.74,0,0-88.19-.37-118.75-68.19-4.13-9.17-6.11-19.16-6.11-29.22v-50.16c0-8.18,2.03-16.26,6.15-23.32,3.58-6.14,9.18-12.81,17.87-17.8,5.51-3.16,11.62-5.09,17.91-5.98,21.69-3.09,105.01-14.12,166.69-10.8,1.85.1,3.6.91,4.83,2.31,1.19,1.35,2.42,3.21,2.53,5.18.05.96.95,1.64,1.9,1.51l1.69-.24c.89-.13,1.56-.88,1.57-1.78.05-6.07-1.3-27.94-22.92-31.22,0,0-102.92-8.39-172.29,18.3Z"/>
      <path class="cls-2" d="m195.67,325.81s38.53,10.52,82.8-22.94c0,0,23.16-18.99,19.35-89.13,0,0,0-61.75-9.91-67.85h-50.31s29.73,86.91-41.93,179.91Z"/>
      <path class="cls-2" d="m34.46,230.05h7.49c.85,0,1.62-.46,2.01-1.21,3.53-6.77,19.07-40.67-6.07-71.42-.43-.53-1.09-.83-1.77-.83h-6.16c-1.78,0-2.87,1.94-1.95,3.46,5.33,8.75,22.54,28.45,4.32,66.93-.68,1.44.54,3.08,2.12,3.08Z"/>
      <path class="cls-2" d="m55.09,297.41h3.23c.74,0,1.42-.42,1.73-1.09,2.38-5.08,11-26.92-6.75-45.1-.36-.37-.87-.58-1.38-.58h-3.89c-1.72,0-2.57,2.09-1.34,3.28,5.02,4.85,16.68,15.5,6.51,41.22-.44,1.12.68,2.28,1.88,2.28Z"/>
      <g>
        <polygon class="cls-2" points="147.96 206.12 154.17 185.36 161.71 206.12 182.2 213.39 161.44 220 154.83 241.29 147.96 219.74 126.67 213.32 147.96 206.12"/>
        <path class="cls-2" d="m154.84,243.53l-7.42-23.25-22.96-6.92,22.95-7.77,6.7-22.37,8.12,22.37,22.08,7.83-22.33,7.11-7.14,22.99Zm-25.96-30.24l19.61,5.91,6.33,19.85,6.08-19.58,19.19-6.11-18.91-6.71-6.95-19.15-5.73,19.14-19.62,6.64Z"/>
      </g>
      <g>
        <path class="cls-1" d="m518.21,91.87v79.5c0,4.24-3.5,7.61-7.61,7.61s-7.61-3.37-7.61-7.61v-56.29l-19.47,26.71c-1.37,1.87-3.62,3.12-6.11,3.12s-4.62-1.25-6.12-3.12l-19.47-26.71v56.29c0,4.24-3.37,7.61-7.61,7.61s-7.49-3.37-7.49-7.61v-80.5c0-.12.13-.25.13-.37v-.37c.12-.12.12-.25.12-.37s.13-.25.13-.37.13-.12.13-.25.12-.25.12-.37c.13-.12.13-.25.13-.37l.25-.25c0-.12.12-.25.12-.37l.25-.25c0-.12.13-.25.25-.37,0-.12.12-.12.12-.25l.37-.25c0-.12.12-.25.25-.25,0-.12.13-.25.25-.25l.25-.25q.13-.12.25-.12t.13-.12c0-.13.13-.13.25-.25.13,0,.25-.12.37-.12.12-.12.25-.12.25-.25.12,0,.25,0,.37-.12.12,0,.25-.12.37-.12s.25-.12.37-.12.12,0,.25-.12c.13,0,.25,0,.5-.13h.25c.13,0,.25,0,.5-.12h1.5s.13,0,.25.12h.37c.13,0,.25,0,.37.13h.37c.12.12.25.12.37.12.13.12.25.12.37.12q.13.12.25.12l.37.25c.12,0,.25,0,.25.12.13,0,.25.12.37.25.12,0,.25.13.25.13l.37.25.25.25c.12,0,.25.12.37.25,0,.13.13.13.13.25.12.12.25.12.25.25.12.12.25.25.25.37q.13,0,.25.12l26.96,37.07,27.08-37.07q0-.12.12-.12c0-.12.13-.25.25-.37,0-.12.13-.12.25-.25,0-.12.12-.12.25-.25.12-.12.12-.25.25-.25l.25-.25c.12-.12.25-.12.37-.25.12,0,.12-.13.25-.13.12-.12.25-.25.37-.25q.13-.12.25-.12l.37-.25c.13,0,.25,0,.37-.12q.13,0,.25-.12c.13,0,.25,0,.37-.12h.37c.13-.13.25-.13.37-.13h.37c.12-.12.25-.12.37-.12h1.5c.13.12.25.12.37.12h.37c.12.13.25.13.37.13.13.12.25.12.25.12.25,0,.37.12.5.12,0,0,.12.12.25.12.12.12.25.12.37.12l.37.25s.13.12.25.12l.37.25.13.12.12.12c.13,0,.25.12.25.25.13,0,.25.12.37.25l.25.25c0,.12.13.12.25.25,0,.12.13.12.13.25.12.12.25.25.25.37l.25.25c0,.12.13.25.25.37q0,.12.13.25c0,.13.12.25.12.37.13.12.13.25.13.37q.12.12.12.25c.13.12.13.25.13.37s.12.25.12.37,0,.25.13.37v1.12c0,.12.13.12.13.25Z"/>
        <path class="cls-1" d="m588.85,123.57v47.8c0,3.87-3.12,7.11-7.24,7.11s-6.62-3.25-6.62-7.11v-1.5c-5.37,4.62-11.61,7.36-19.1,7.36-16.72,0-30.2-13.48-30.2-30.08s13.48-30.2,30.2-30.2c7.49,0,13.73,2.87,19.1,7.24v-.62c0-3.87,2.5-7.11,6.62-7.11s7.24,3.24,7.24,7.11Zm-17.35,23.59c0-8.61-7.11-15.6-15.6-15.6s-15.73,6.99-15.73,15.6,7.12,15.48,15.73,15.48,15.6-6.86,15.6-15.48Z"/>
        <path class="cls-1" d="m622.91,179.11c-7.99,0-15.98-3.24-20.09-7.11-3-2.75-3.25-7.49-.37-10.48,2.75-3.12,7.49-3.25,10.48-.5,2.25,2.12,10.61,4.99,15.35,1.87,1.25-.75,2-2.12,2-3.5,0-1.75-1.5-2.99-2.75-3.49-1.12-.62-3.12-.62-5.37-.62-3,0-6.37-.12-9.86-1.37-6.49-2.12-11.73-8.86-12.23-15.35-.62-7.86,2.75-12.73,5.62-15.48,6.24-5.74,15.35-6.61,21.97-5.49,4.99.87,8.74,2.62,11.86,5.49,3,2.75,3.25,7.49.5,10.48-1.62,1.75-3.99,2.62-6.36,2.37-1.12-.12-2.25-.5-3.25-1.12-1.75-1.25-3-2.12-5.24-2.5-3.74-.62-10.73-.37-10.23,4.99.13.62,1.25,2.25,2.25,2.62,1.25.37,3.12.37,5.12.37,3.25.13,7.37.13,11.48,2,6.86,3.12,11.36,9.86,11.36,17.1,0,6.37-3.24,12.36-8.61,15.98-4.24,2.75-8.86,3.74-13.6,3.74Z"/>
        <path class="cls-1" d="m676.2,179.11c-7.99,0-15.98-3.24-20.09-7.11-3-2.75-3.25-7.49-.37-10.48,2.75-3.12,7.49-3.25,10.48-.5,2.25,2.12,10.61,4.99,15.35,1.87,1.25-.75,2-2.12,2-3.5,0-1.75-1.5-2.99-2.75-3.49-1.12-.62-3.12-.62-5.37-.62-3,0-6.37-.12-9.86-1.37-6.49-2.12-11.73-8.86-12.23-15.35-.62-7.86,2.75-12.73,5.62-15.48,6.24-5.74,15.35-6.61,21.97-5.49,4.99.87,8.74,2.62,11.86,5.49,3,2.75,3.25,7.49.5,10.48-1.62,1.75-3.99,2.62-6.36,2.37-1.12-.12-2.25-.5-3.25-1.12-1.75-1.25-3-2.12-5.24-2.5-3.74-.62-10.73-.37-10.23,4.99.13.62,1.25,2.25,2.25,2.62,1.25.37,3.12.37,5.12.37,3.25.13,7.37.13,11.48,2,6.86,3.12,11.36,9.86,11.36,17.1,0,6.37-3.24,12.36-8.61,15.98-4.24,2.75-8.86,3.74-13.6,3.74Z"/>
        <path class="cls-1" d="m716.26,105.6c-4.37,0-7.86-3.5-7.86-7.61v-.62c0-4.37,3.5-7.74,7.86-7.74,4.12,0,7.61,3.37,7.61,7.74v.62c0,4.12-3.5,7.61-7.61,7.61Zm0,73.26c-4.37,0-7.86-3.5-7.86-7.74v-48.18c0-4.24,3.5-7.61,7.86-7.61,4.12,0,7.61,3.37,7.61,7.61v48.18c0,4.24-3.5,7.74-7.61,7.74Z"/>
        <path class="cls-1" d="m763.44,178.61h-.12c-2.75,0-5.24-1.62-6.49-4.12l-23.46-46.8c-1.75-3.74-.37-8.11,3.37-9.98,3.62-1.75,7.99-.37,9.86,3.37l16.85,33.7,16.85-32.83c1.87-3.62,6.24-5.12,9.86-3.24,3.62,1.87,5.12,6.24,3.24,9.86l-23.46,45.93c-1.25,2.5-3.74,4.12-6.49,4.12Z"/>
        <path class="cls-1" d="m852.3,151.78h-38.44c1.75,7.11,8.11,12.61,15.85,12.61,3.99,0,9.86-1.62,13.11-4.74,3-2.87,7.74-2.87,10.61.12,2.99,2.87,2.87,7.74-.13,10.61-6.86,6.61-16.47,8.86-23.59,8.86-17.35,0-31.2-13.98-31.2-31.33s13.85-31.33,31.2-31.33c1.87,0,3.62.12,5.49.5,8.49,1.62,15.73,6.86,20.22,14.35,2,3.5,4.24,8.11,3.99,12.23,0,1.12-.5,2.37-1,3.62-1,2.37-3.12,4.49-6.11,4.49Zm-36.32-12.61h26.46c-2.5-4.74-7.11-7.49-12.73-7.49s-10.73,2.87-13.73,7.49Z"/>
        <path class="cls-1" d="m502.36,262.75c-.87,14.6-14.1,23.09-25.96,24.84-2,.25-4.12.37-6.11.37-12.23,0-24.34-5.12-31.83-13.98-2.62-3.12-2.25-7.74.87-10.48,3.12-2.62,7.74-2.25,10.36.87,5.49,6.36,15.35,9.86,24.59,8.49,6.11-.87,12.86-4.62,13.23-10.98.37-5.62-3.99-10.86-10.11-12.23-2.5-.62-5.37-.75-8.24-.87-6.49-.37-13.73-.75-20.47-5.37-9.11-6.24-13.6-17.6-10.86-27.58,3-10.86,12.98-19.22,24.84-20.97,11.48-1.62,23.71,1.62,32.58,8.49,3.12,2.5,3.74,7.24,1.25,10.48-2.5,3.12-7.24,3.74-10.49,1.25-5.62-4.49-13.73-6.62-21.34-5.49-5.87.87-11.11,4.99-12.48,10.23-1.25,4.37,1.5,8.99,4.99,11.36,3.24,2.25,7.61,2.5,12.73,2.75,3.5.25,6.99.37,10.73,1.25,13.11,2.87,22.47,14.85,21.72,27.58Z"/>
        <path class="cls-1" d="m577.86,256.88c0,17.47-14.23,31.58-31.58,31.58-6.49,0-12.48-2-17.6-5.24v29.2c0,4.24-3.37,7.61-7.49,7.61s-7.61-3.37-7.61-7.61v-79.38c0-4.12,3.37-7.49,7.61-7.49,3.37,0,6.24,2.25,7.24,5.24,4.99-3.49,11.23-5.49,17.85-5.49,17.35,0,31.58,14.1,31.58,31.58Zm-15.1,0c0-9.11-7.49-16.47-16.47-16.47s-16.48,7.36-16.48,16.47,7.37,16.47,16.48,16.47,16.47-7.36,16.47-16.47Z"/>
        <path class="cls-1" d="m646.63,232.67v47.8c0,3.87-3.12,7.11-7.24,7.11s-6.62-3.24-6.62-7.11v-1.5c-5.37,4.62-11.61,7.36-19.1,7.36-16.72,0-30.2-13.48-30.2-30.08s13.48-30.2,30.2-30.2c7.49,0,13.73,2.87,19.1,7.24v-.62c0-3.87,2.5-7.11,6.62-7.11s7.24,3.24,7.24,7.11Zm-17.35,23.59c0-8.61-7.11-15.6-15.6-15.6s-15.72,6.99-15.72,15.6,7.11,15.48,15.72,15.48,15.6-6.86,15.6-15.48Z"/>
        <path class="cls-1" d="m689.68,287.58c-8.24,0-15.85-3.12-21.72-8.74-5.99-5.87-9.36-13.6-9.61-21.97-.13-8.24,2.87-16.23,8.86-22.22,5.74-5.99,13.48-9.36,21.84-9.61,8.36-.12,16.23,3,22.22,8.86,3,2.75,3.12,7.61.25,10.49-2.87,2.99-7.61,3.12-10.61.25-3.12-3-7.24-4.62-11.61-4.62s-8.36,1.87-11.48,4.99c-2.87,3.12-4.62,7.24-4.49,11.61,0,4.24,1.87,8.49,4.99,11.36,3.12,3.12,7.24,4.74,11.48,4.62,4.12,0,7.99-1.62,10.98-4.37,2.87-2.87,7.74-2.62,10.48.37,2.87,2.99,2.62,7.74-.37,10.61-5.62,5.24-12.98,8.24-20.72,8.36h-.5Z"/>
        <path class="cls-1" d="m773.8,260.88h-38.44c1.75,7.11,8.11,12.61,15.85,12.61,3.99,0,9.86-1.62,13.11-4.74,3-2.87,7.74-2.87,10.61.13,2.99,2.87,2.87,7.74-.13,10.61-6.86,6.62-16.47,8.86-23.59,8.86-17.35,0-31.2-13.98-31.2-31.33s13.85-31.33,31.2-31.33c1.87,0,3.62.13,5.49.5,8.49,1.62,15.73,6.86,20.22,14.35,2,3.5,4.24,8.11,3.99,12.23,0,1.12-.5,2.37-1,3.62-1,2.37-3.12,4.49-6.11,4.49Zm-36.32-12.61h26.46c-2.5-4.74-7.11-7.49-12.73-7.49s-10.73,2.87-13.73,7.49Z"/>
      </g>
      <path class="cls-1" d="m196.91,393.81C88.33,393.81,0,305.48,0,196.91S88.33,0,196.91,0s196.91,88.33,196.91,196.91-88.33,196.91-196.91,196.91Zm0-388.43C91.3,5.38,5.38,91.3,5.38,196.91s85.92,191.52,191.52,191.52,191.52-85.92,191.52-191.52S302.51,5.38,196.91,5.38Z"/>
    </g>
  </g>
</svg>